<svg width="2040" height="2040" viewBox="0 0 2040 2040" fill="none" xmlns="http://www.w3.org/2000/svg">
<rect x="30" y="30" width="1980" height="1980" fill="#932F2F"/>
<rect x="30" y="30" width="1980" height="1980" stroke="#272727" stroke-width="60"/>
<path d="M1112.23 995.31C1045.93 995.31 1008.04 939.356 1008.04 872.122C1008.04 804.887 1045.93 748.933 1112.23 748.933C1142.9 748.933 1165.45 761.116 1180.33 778.715V666.355H1234.46V990.347H1180.33V965.528C1165.45 983.127 1142.9 995.31 1112.23 995.31ZM1181.69 865.353C1181.69 820.68 1156.43 796.313 1123.05 796.313C1083.81 796.313 1062.62 826.997 1062.62 872.122C1062.62 917.246 1083.81 947.93 1123.05 947.93C1156.43 947.93 1181.69 923.112 1181.69 879.341V865.353Z" fill="white"/>
<path d="M966.056 666.355V990.347H911.934V666.355H966.056Z" fill="white"/>
<path d="M800.037 721.858V666.355H855.964V721.858H800.037ZM855.062 753.445V990.347H800.939V753.445H855.062Z" fill="white"/>
<path d="M743.894 753.448V990.349H689.772V965.08C676.241 980.873 655.945 995.313 625.276 995.313C575.664 995.313 544.994 961.47 544.994 910.479V753.448H599.117V898.747C599.117 927.627 611.745 946.128 641.062 946.128C665.417 946.128 689.772 928.078 689.772 894.235V753.448H743.894Z" fill="white"/>
<path d="M261 990.347V666.355H389.541C458.998 666.355 495.982 696.589 495.982 751.64C495.982 791.801 472.529 812.558 449.978 821.582C483.805 832.412 506.356 860.389 506.356 900.098C506.356 956.955 464.411 990.347 397.659 990.347H261ZM316.476 800.374H384.129C421.113 800.374 441.408 785.934 441.408 757.506C441.408 729.078 421.113 715.09 384.129 715.09H316.476V800.374ZM316.476 849.108V941.613H394.502C431.035 941.613 450.88 922.661 450.88 895.135C450.88 868.06 431.035 849.108 394.502 849.108H316.476Z" fill="white"/>
<path d="M1640.54 1373.45C1595.43 1373.45 1560.71 1345.93 1560.71 1303.51C1560.71 1258.39 1594.53 1238.53 1640.09 1229.06L1705.48 1215.52V1211.46C1705.48 1188.9 1693.76 1174.91 1664.89 1174.91C1639.18 1174.91 1625.65 1186.64 1619.34 1209.65L1568.37 1197.92C1580.1 1158.66 1614.83 1127.98 1667.15 1127.98C1723.98 1127.98 1758.25 1155.05 1758.25 1209.65V1311.63C1758.25 1325.17 1764.12 1329.23 1779 1327.43V1369.39C1739.76 1373.9 1719.01 1366.23 1710.9 1346.83C1696.01 1363.53 1671.21 1373.45 1640.54 1373.45ZM1705.48 1285.91V1257.03L1654.52 1267.86C1631.52 1272.83 1614.38 1280.05 1614.38 1301.25C1614.38 1319.76 1627.91 1330.13 1648.65 1330.13C1677.52 1330.13 1705.48 1314.79 1705.48 1285.91Z" fill="white"/>
<path d="M1398.91 1374.35C1332.61 1374.35 1294.73 1318.4 1294.73 1251.17C1294.73 1183.93 1332.61 1127.98 1398.91 1127.98C1429.58 1127.98 1452.13 1140.16 1467.02 1157.76V1045.4H1521.14V1369.39H1467.02V1344.57C1452.13 1362.17 1429.58 1374.35 1398.91 1374.35ZM1468.37 1244.4C1468.37 1199.72 1443.11 1175.36 1409.74 1175.36C1370.5 1175.36 1349.3 1206.04 1349.3 1251.17C1349.3 1296.29 1370.5 1326.97 1409.74 1326.97C1443.11 1326.97 1468.37 1302.16 1468.37 1258.39V1244.4Z" fill="white"/>
<path d="M1132.7 1373.45C1087.59 1373.45 1052.87 1345.93 1052.87 1303.51C1052.87 1258.39 1086.69 1238.53 1132.25 1229.06L1197.64 1215.52V1211.46C1197.64 1188.9 1185.92 1174.91 1157.05 1174.91C1131.34 1174.91 1117.81 1186.64 1111.5 1209.65L1060.53 1197.92C1072.26 1158.66 1106.99 1127.98 1159.31 1127.98C1216.14 1127.98 1250.41 1155.05 1250.41 1209.65V1311.63C1250.41 1325.17 1256.28 1329.23 1271.16 1327.43V1369.39C1231.92 1373.9 1211.17 1366.23 1203.06 1346.83C1188.17 1363.53 1163.37 1373.45 1132.7 1373.45ZM1197.64 1285.91V1257.03L1146.68 1267.86C1123.68 1272.83 1106.54 1280.05 1106.54 1301.25C1106.54 1319.76 1120.07 1330.13 1140.82 1330.13C1169.68 1330.13 1197.64 1314.79 1197.64 1285.91Z" fill="white"/>
<path d="M815.866 1369.39V1132.49H869.988V1157.76C883.519 1141.97 904.717 1127.98 935.386 1127.98C984.999 1127.98 1014.77 1162.27 1014.77 1213.26V1369.39H960.643V1229.06C960.643 1199.73 948.917 1178.52 919.15 1178.52C894.794 1178.52 869.988 1196.57 869.988 1230.41V1369.39H815.866Z" fill="white"/>
<path d="M638.952 1373.45C593.85 1373.45 559.122 1345.93 559.122 1303.51C559.122 1258.39 592.948 1238.53 638.501 1229.06L703.899 1215.52V1211.46C703.899 1188.9 692.173 1174.91 663.308 1174.91C637.599 1174.91 624.069 1186.64 617.754 1209.65L566.789 1197.92C578.515 1158.66 613.244 1127.98 665.563 1127.98C722.391 1127.98 756.669 1155.05 756.669 1209.65V1311.63C756.669 1325.17 762.532 1329.23 777.416 1327.43V1369.39C738.177 1373.9 717.43 1366.23 709.312 1346.83C694.428 1363.53 669.622 1373.45 638.952 1373.45ZM703.899 1285.91V1257.03L652.934 1267.86C629.932 1272.83 612.793 1280.05 612.793 1301.25C612.793 1319.76 626.324 1330.13 647.071 1330.13C675.936 1330.13 703.899 1314.79 703.899 1285.91Z" fill="white"/>
<path d="M318.731 1207.4C318.731 1277.34 356.617 1323.37 409.837 1323.37C447.723 1323.37 475.235 1300.35 485.158 1262.45L539.28 1280.95C520.337 1338.26 475.235 1374.36 409.837 1374.36C323.692 1374.36 261 1305.77 261 1207.4C261 1109.03 323.692 1040.44 409.837 1040.44C475.235 1040.44 520.337 1076.54 539.28 1133.84L485.158 1152.34C475.235 1114.44 447.723 1091.43 409.837 1091.43C356.617 1091.43 318.731 1137.45 318.731 1207.4Z" fill="white"/>
</svg>
