<svg width="2041" height="1239" viewBox="0 0 2041 1239" fill="none" xmlns="http://www.w3.org/2000/svg">
<rect x="30" y="30" width="1980.71" height="1178.71" fill="#932F2F"/>
<rect x="30" y="30" width="1980.71" height="1178.71" stroke="#272727" stroke-width="60"/>
<path d="M1112.23 594.31C1045.93 594.31 1008.04 538.356 1008.04 471.122C1008.04 403.887 1045.93 347.933 1112.23 347.933C1142.9 347.933 1165.45 360.116 1180.33 377.715V265.355H1234.46V589.347H1180.33V564.528C1165.45 582.127 1142.9 594.31 1112.23 594.31ZM1181.69 464.353C1181.69 419.68 1156.43 395.313 1123.05 395.313C1083.81 395.313 1062.62 425.997 1062.62 471.122C1062.62 516.246 1083.81 546.93 1123.05 546.93C1156.43 546.93 1181.69 522.112 1181.69 478.341V464.353Z" fill="white"/>
<path d="M966.056 265.355V589.347H911.933V265.355H966.056Z" fill="white"/>
<path d="M800.037 320.858V265.355H855.964V320.858H800.037ZM855.061 352.445V589.347H800.939V352.445H855.061Z" fill="white"/>
<path d="M743.894 352.448V589.349H689.772V564.08C676.241 579.873 655.945 594.313 625.276 594.313C575.664 594.313 544.994 560.47 544.994 509.479V352.448H599.117V497.747C599.117 526.627 611.745 545.128 641.062 545.128C665.417 545.128 689.772 527.078 689.772 493.235V352.448H743.894Z" fill="white"/>
<path d="M261 589.347V265.355H389.541C458.998 265.355 495.982 295.589 495.982 350.64C495.982 390.801 472.529 411.558 449.978 420.582C483.805 431.412 506.356 459.389 506.356 499.098C506.356 555.955 464.411 589.347 397.659 589.347H261ZM316.476 399.374H384.129C421.113 399.374 441.408 384.934 441.408 356.506C441.408 328.078 421.113 314.09 384.129 314.09H316.476V399.374ZM316.476 448.108V540.613H394.502C431.035 540.613 450.88 521.661 450.88 494.135C450.88 467.06 431.035 448.108 394.502 448.108H316.476Z" fill="white"/>
<path d="M1640.54 972.453C1595.43 972.453 1560.71 944.927 1560.71 902.511C1560.71 857.387 1594.53 837.532 1640.09 828.056L1705.48 814.519V810.457C1705.48 787.895 1693.76 773.907 1664.89 773.907C1639.18 773.907 1625.65 785.639 1619.34 808.652L1568.37 796.92C1580.1 757.662 1614.83 726.978 1667.15 726.978C1723.98 726.978 1758.25 754.052 1758.25 808.652V910.633C1758.25 924.17 1764.12 928.231 1779 926.426V968.392C1739.76 972.904 1719.01 965.233 1710.9 945.83C1696.01 962.526 1671.21 972.453 1640.54 972.453ZM1705.48 884.912V856.033L1654.52 866.863C1631.52 871.826 1614.38 879.046 1614.38 900.254C1614.38 918.755 1627.91 929.134 1648.65 929.134C1677.52 929.134 1705.48 913.792 1705.48 884.912Z" fill="white"/>
<path d="M1398.91 973.355C1332.61 973.355 1294.73 917.401 1294.73 850.166C1294.73 782.931 1332.61 726.977 1398.91 726.977C1429.58 726.977 1452.13 739.161 1467.02 756.759V644.4H1521.14V968.391H1467.02V943.573C1452.13 961.171 1429.58 973.355 1398.91 973.355ZM1468.37 843.397C1468.37 798.724 1443.11 774.357 1409.74 774.357C1370.5 774.357 1349.3 805.042 1349.3 850.166C1349.3 895.29 1370.5 925.975 1409.74 925.975C1443.11 925.975 1468.37 901.156 1468.37 857.386V843.397Z" fill="white"/>
<path d="M1132.7 972.453C1087.6 972.453 1052.87 944.927 1052.87 902.511C1052.87 857.387 1086.69 837.532 1132.25 828.056L1197.64 814.519V810.457C1197.64 787.895 1185.92 773.907 1157.05 773.907C1131.34 773.907 1117.81 785.639 1111.5 808.652L1060.53 796.92C1072.26 757.662 1106.99 726.978 1159.31 726.978C1216.14 726.978 1250.41 754.052 1250.41 808.652V910.633C1250.41 924.17 1256.28 928.231 1271.16 926.426V968.392C1231.92 972.904 1211.17 965.233 1203.06 945.83C1188.17 962.526 1163.37 972.453 1132.7 972.453ZM1197.64 884.912V856.033L1146.68 866.863C1123.68 871.826 1106.54 879.046 1106.54 900.254C1106.54 918.755 1120.07 929.134 1140.82 929.134C1169.68 929.134 1197.64 913.792 1197.64 884.912Z" fill="white"/>
<path d="M815.866 968.392V731.49H869.988V756.76C883.519 740.966 904.717 726.978 935.386 726.978C984.999 726.978 1014.77 761.272 1014.77 812.262V968.392H960.643V828.056C960.643 798.725 948.917 777.517 919.15 777.517C894.794 777.517 869.988 795.566 869.988 829.41V968.392H815.866Z" fill="white"/>
<path d="M638.952 972.453C593.85 972.453 559.122 944.927 559.122 902.511C559.122 857.387 592.948 837.532 638.501 828.056L703.899 814.519V810.457C703.899 787.895 692.173 773.907 663.308 773.907C637.599 773.907 624.069 785.639 617.754 808.652L566.789 796.92C578.515 757.662 613.244 726.978 665.563 726.978C722.391 726.978 756.669 754.052 756.669 808.652V910.633C756.669 924.17 762.532 928.231 777.416 926.426V968.392C738.177 972.904 717.43 965.233 709.312 945.83C694.428 962.526 669.622 972.453 638.952 972.453ZM703.899 884.912V856.033L652.934 866.863C629.932 871.826 612.793 879.046 612.793 900.254C612.793 918.755 626.324 929.134 647.071 929.134C675.936 929.134 703.899 913.792 703.899 884.912Z" fill="white"/>
<path d="M318.731 806.396C318.731 876.339 356.617 922.365 409.837 922.365C447.723 922.365 475.235 899.352 485.158 861.448L539.28 879.949C520.337 937.256 475.235 973.356 409.837 973.356C323.692 973.356 261 904.767 261 806.396C261 708.026 323.692 639.437 409.837 639.437C475.235 639.437 520.337 675.536 539.28 732.844L485.158 751.345C475.235 713.441 447.723 690.427 409.837 690.427C356.617 690.427 318.731 736.454 318.731 806.396Z" fill="white"/>
</svg>
